comm<?xml version="1.0" encoding="utf-8"?>
<!-- Generator: Adobe Illustrator 13.0.0, SVG Export Plug-In . SVG Version: 6.00 Build 14948)  -->
<!DOCTYPE svg PUBLIC "-//W3C//DTD SVG 1.1//EN" "http://www.w3.org/Graphics/SVG/1.1/DTD/svg11.dtd">
<svg version="1.1" id="VARG" xmlns="http://www.w3.org/2000/svg" xmlns:xlink="http://www.w3.org/1999/xlink" x="0px" y="0px"
	 width="320.828px" height="81.5px" viewBox="0 0 320.828 81.5" enable-background="new 0 0 320.828 81.5" xml:space="preserve">
<g>
	<path d="M55.201,42.813c0-16.734,10.109-28.118,26.504-28.118c15.462,0,24.128,7.562,24.128,18.688H90.371
		c0-3.396-2.465-6.032-8.581-6.032c-6.287,0-9.768,7.309-9.768,14.782c0,6.709,3.059,13.422,9.599,13.422
		c5.521,0,8.495-1.869,8.495-5.947h-6.711V38.566h22.85v28.627H95.552c0,0,0-2.209,0-4.162c-0.68,0.595-5.013,5.268-14.357,5.268
		C65.651,68.298,55.201,58.271,55.201,42.813z M21.053,67.193c0,0-7.646,0-16.312,0l18.521-51.307h16.139l18.433,51.307H41.439
		l-2.291-6.371H23.263L21.053,67.193z M31.161,32.449l-5.097,17.499h10.45L31.161,32.449"/>
	<path d="M111.92,15.886h39.671v13.591h-23.359v7.475h18.688v12.655H128.23v17.586H111.92V15.886z M161.872,67.193h-16.311
		l18.602-51.307h16.143l18.351,51.307h-16.227l-2.805-6.371H163.91L161.872,67.193z M171.981,32.449l-5.102,17.585h10.45
		L171.981,32.449"/>
	<polyline fill="#EF3B24" points="217.245,42.471 268.811,1.759 318.844,42.643 268.811,79.682 217.245,42.471 	"/>
	<path fill="#FFFFFF" d="M239.245,40.01c-4.841,6.538-5.946,6.032-8.408,6.285v2.294c0.255,0,3.567,0.595,5.605-1.188
		c0.936-0.68,2.974-3.144,2.974-3.144h6.712l-1.614,4.671h6.37l5.947-18.092c-0.171,0.171-6.203,0-8.665,0.594
		C244.513,32.363,243.748,33.98,239.245,40.01"/>
	<path fill="#FFFFFF" d="M261.078,49.439c2.718,0,4.5-1.444,4.5-1.444c-0.338,1.526-1.44,2.972-2.632,3.653
		c-2.039,1.358-4.671,0.252-6.286,0l-1.104,2.209c0.003,0,4.25,1.44,7.392,1.44c3.994,0,6.882-3.819,7.899-7.644
		c0.512-1.868,2.465-10.79,2.465-10.79h-4.928l-0.597,2.211c-0.25-1.02-1.7-2.637-4.162-2.637c-4.838,0-7.813,3.57-7.813,7.309
		C255.811,47.654,258.869,49.439,261.078,49.439"/>
	<path fill="#FFFFFF" d="M282.655,39.077h2.547l0.594-2.211h-2.208c0,0,0.683-2.547,2.464-3.227
		c2.039-0.765,4.077-0.512,4.077-0.512v-2.291c0,0-3.649,0-4.077,0c-4.331,0-6.797,3.144-7.559,6.029h-2.803l-0.342,2.211h2.462
		l-2.801,9.852h5.098L282.655,39.077"/>
	<path fill="#FFFFFF" d="M295.567,46.637l-0.598,2.291h4.503l3.399-12.063h-4.927l-0.765,2.379c0,0-1.444-2.632-4.162-2.632
		c-4.25,0-7.817,3.397-7.817,7.477c0,3.228,2.377,5.265,4.674,5.265C292.17,49.354,294.293,48.333,295.567,46.637"/>
	<path fill="#EF3B24" d="M266.514,42.643c0,2.633-2.294,4.506-4.671,4.506c-1.782,0-3.314-1.105-3.314-3.399
		c0-2.039,1.867-4.844,4.841-4.844C265.752,38.905,266.514,40.774,266.514,42.643"/>
	<path fill="#EF3B24" d="M247.061,34.401c0.85-0.421,2.635-0.253,2.635-0.253l-2.888,7.645h-5.606
		C241.201,41.792,245.022,35.339,247.061,34.401"/>
	<path fill="#EF3B24" d="M295.652,42.048c0,2.636-2.209,5.013-4.844,5.013c-1.612,0-2.89-1.444-2.89-3.145
		c0-2.633,2.297-4.924,4.845-4.924C294.379,38.993,295.652,40.434,295.652,42.048"/>
</g>
</svg>
